<?xml version="1.0" encoding="utf-8"?>
<!-- Generator: Adobe Illustrator 16.0.0, SVG Export Plug-In . SVG Version: 6.00 Build 0)  -->
<!DOCTYPE svg PUBLIC "-//W3C//DTD SVG 1.1//EN" "http://www.w3.org/Graphics/SVG/1.1/DTD/svg11.dtd">
<svg version="1.1" id="Layer_1" xmlns="http://www.w3.org/2000/svg" xmlns:xlink="http://www.w3.org/1999/xlink" x="0px" y="0px"
	 width="920px" height="632px" viewBox="0 0 920 632" enable-background="new 0 0 920 632" xml:space="preserve">
<g>
	<circle fill="#5D5E5E" cx="290.674" cy="313.99" r="83.682"/>
	<path opacity="0.1" fill="#FFFFFF" d="M350.138,255.392c-15.186-15.476-36.327-25.084-59.721-25.084
		c-46.216,0-83.683,37.465-83.683,83.682c0,23.393,9.61,44.535,25.086,59.722L350.138,255.392z"/>
</g>
<g>
	<circle fill="#5D5E5E" cx="290.674" cy="104.727" r="83.682"/>
	<path opacity="0.1" fill="#FFFFFF" d="M350.138,46.128c-15.186-15.475-36.327-25.083-59.721-25.083
		c-46.216,0-83.683,37.465-83.683,83.681c0,23.394,9.61,44.535,25.086,59.722L350.138,46.128z"/>
</g>
<text transform="matrix(1 0 0 1 235.9331 298.2852)" fill="#FFFFFF" font-family="'OpenSans-CondensedBold'" font-size="29.6318">Cenário Y</text>
<text transform="matrix(1 0 0 1 248.3413 327.9165)"><tspan x="0" y="0" fill="#FFFFFF" font-family="'OpenSans'" font-size="20.9166">Título do</tspan><tspan x="5.015" y="21.614" fill="#FFFFFF" font-family="'OpenSans'" font-size="20.9166">Cenário</tspan></text>
<g>
	<text transform="matrix(1 0 0 1 236.5415 95.5356)" fill="#FFFFFF" font-family="'OpenSans-CondensedBold'" font-size="29.6318">Cenário Z</text>
	<text transform="matrix(1 0 0 1 248.9482 125.1685)"><tspan x="0" y="0" fill="#FFFFFF" font-family="'OpenSans'" font-size="20.9166">Título do</tspan><tspan x="-3.334" y="21.614" fill="#FFFFFF" font-family="'OpenSans'" font-size="20.9166">Cenário...</tspan></text>
</g>
<g>
	<circle fill="#5D5E5E" cx="290.674" cy="527.546" r="83.683"/>
	<path opacity="0.1" fill="#FFFFFF" d="M350.138,468.949c-15.186-15.476-36.327-25.086-59.721-25.086
		c-46.216,0-83.683,37.468-83.683,83.683c0,23.395,9.61,44.535,25.086,59.722L350.138,468.949z"/>
</g>
<g>
	<text transform="matrix(1 0 0 1 235.8755 511.7852)" fill="#FFFFFF" font-family="'OpenSans-CondensedBold'" font-size="29.6318">Cenário X</text>
	<text transform="matrix(1 0 0 1 248.2856 541.417)"><tspan x="0" y="0" fill="#FFFFFF" font-family="'OpenSans'" font-size="20.9166">Título do</tspan><tspan x="5.015" y="21.614" fill="#FFFFFF" font-family="'OpenSans'" font-size="20.9166">Cenário</tspan></text>
</g>
<g>
	<circle fill="#6DB3BA" cx="485.407" cy="313.713" r="67.149"/>
	<path opacity="0.1" fill="#FFFFFF" d="M533.123,266.693c-12.186-12.419-29.149-20.129-47.922-20.129
		c-37.085,0-67.149,30.063-67.149,67.148c0,18.771,7.711,35.736,20.13,47.922L533.123,266.693z"/>
</g>
<g>
	<circle fill="#6DB3BA" cx="485.407" cy="99.897" r="67.148"/>
	<path opacity="0.1" fill="#FFFFFF" d="M533.123,52.879c-12.186-12.419-29.149-20.13-47.922-20.13
		c-37.085,0-67.149,30.064-67.149,67.148c0,18.772,7.711,35.736,20.13,47.923L533.123,52.879z"/>
</g>
<g>
	<circle fill="#6DB3BA" cx="486.032" cy="527.27" r="67.149"/>
	<path opacity="0.1" fill="#FFFFFF" d="M533.747,480.251c-12.185-12.42-29.151-20.13-47.922-20.13
		c-37.084,0-67.148,30.064-67.148,67.149c0,18.77,7.711,35.736,20.13,47.922L533.747,480.251z"/>
</g>
<g>
	<circle fill="#6DB3BA" cx="663.313" cy="313.988" r="67.149"/>
	<path opacity="0.1" fill="#FFFFFF" d="M711.029,266.97c-12.187-12.419-29.152-20.13-47.924-20.13
		c-37.084,0-67.148,30.064-67.148,67.15c0,18.77,7.711,35.736,20.13,47.922L711.029,266.97z"/>
</g>
<g>
	<circle fill="#6DB3BA" cx="663.313" cy="100.173" r="67.148"/>
	<path opacity="0.1" fill="#FFFFFF" d="M711.029,53.155c-12.187-12.419-29.152-20.129-47.924-20.129
		c-37.084,0-67.148,30.063-67.148,67.148c0,18.771,7.711,35.736,20.13,47.923L711.029,53.155z"/>
</g>
<g>
	<circle fill="#6DB3BA" cx="663.313" cy="527.545" r="67.149"/>
	<path opacity="0.1" fill="#FFFFFF" d="M711.029,480.526c-12.187-12.418-29.152-20.13-47.924-20.13
		c-37.084,0-67.148,30.064-67.148,67.149c0,18.771,7.711,35.736,20.13,47.922L711.029,480.526z"/>
</g>
<g>
	<circle fill="#6DB3BA" cx="839.852" cy="313.988" r="67.149"/>
	<path opacity="0.1" fill="#FFFFFF" d="M887.568,266.97c-12.187-12.419-29.152-20.13-47.923-20.13
		c-37.085,0-67.149,30.064-67.149,67.15c0,18.77,7.711,35.736,20.131,47.922L887.568,266.97z"/>
</g>
<g>
	<circle fill="#6DB3BA" cx="838.109" cy="527.545" r="67.149"/>
	<path opacity="0.1" fill="#FFFFFF" d="M885.825,480.526c-12.186-12.418-29.151-20.13-47.924-20.13
		c-37.084,0-67.148,30.064-67.148,67.149c0,18.771,7.712,35.736,20.131,47.922L885.825,480.526z"/>
</g>
<g>
	<circle fill="#6DB3BA" cx="74.773" cy="313.988" r="67.149"/>
	<path opacity="0.1" fill="#FFFFFF" d="M122.488,266.97c-12.185-12.419-29.15-20.13-47.921-20.13
		c-37.085,0-67.149,30.064-67.149,67.15c0,18.77,7.711,35.736,20.13,47.922L122.488,266.97z"/>
</g>
<text transform="matrix(1 0 0 1 19.335 322.4507)" fill="#FFFFFF" font-family="'OpenSans-CondensedBold'" font-size="20.9166">Apresentação</text>
<g>
	<text transform="matrix(1 0 0 1 446.0659 304.0259)" fill="#FFFFFF" font-family="'OpenSans-CondensedBold'" font-size="24.4027">Tópico X</text>
	<text transform="matrix(1 0 0 1 452.5537 327.9653)"><tspan x="0" y="0" fill="#FFFFFF" font-family="'OpenSans'" font-size="17.4305">Título do</tspan><tspan x="8.745" y="17.431" fill="#FFFFFF" font-family="'OpenSans'" font-size="17.4305">Tópico</tspan></text>
</g>
<g>
	<text transform="matrix(1 0 0 1 446.0659 515.2578)" fill="#FFFFFF" font-family="'OpenSans-CondensedBold'" font-size="24.4027">Tópico X</text>
	<text transform="matrix(1 0 0 1 450.2295 539.1973)"><tspan x="0" y="0" fill="#FFFFFF" font-family="'OpenSans'" font-size="17.4305">Título do</tspan><tspan x="8.745" y="17.431" fill="#FFFFFF" font-family="'OpenSans'" font-size="17.4305">Tópico</tspan></text>
</g>
<g>
	<text transform="matrix(1 0 0 1 446.0659 86.7251)" fill="#FFFFFF" font-family="'OpenSans-CondensedBold'" font-size="24.4027">Tópico X</text>
	<text transform="matrix(1 0 0 1 449.0664 110.6641)"><tspan x="0" y="0" fill="#FFFFFF" font-family="'OpenSans'" font-size="17.4305">Título do</tspan><tspan x="8.745" y="17.431" fill="#FFFFFF" font-family="'OpenSans'" font-size="17.4305">Tópico</tspan></text>
</g>
<g>
	<text transform="matrix(1 0 0 1 624.0171 304.0752)" fill="#FFFFFF" font-family="'OpenSans-CondensedBold'" font-size="24.4027">Tópico Y</text>
	<text transform="matrix(1 0 0 1 630.5044 328.0142)"><tspan x="0" y="0" fill="#FFFFFF" font-family="'OpenSans'" font-size="17.4305">Título do</tspan><tspan x="8.745" y="17.431" fill="#FFFFFF" font-family="'OpenSans'" font-size="17.4305">Tópico</tspan></text>
</g>
<g>
	<text transform="matrix(1 0 0 1 624.021 515.3047)" fill="#FFFFFF" font-family="'OpenSans-CondensedBold'" font-size="24.4027">Tópico Y</text>
	<text transform="matrix(1 0 0 1 628.1821 539.2451)"><tspan x="0" y="0" fill="#FFFFFF" font-family="'OpenSans'" font-size="17.4305">Título do</tspan><tspan x="8.745" y="17.431" fill="#FFFFFF" font-family="'OpenSans'" font-size="17.4305">Tópico</tspan></text>
</g>
<g>
	<text transform="matrix(1 0 0 1 624.02 86.772)" fill="#FFFFFF" font-family="'OpenSans-CondensedBold'" font-size="24.4027">Tópico Y</text>
	<text transform="matrix(1 0 0 1 627.0181 110.7114)"><tspan x="0" y="0" fill="#FFFFFF" font-family="'OpenSans'" font-size="17.4305">Título do</tspan><tspan x="8.745" y="17.431" fill="#FFFFFF" font-family="'OpenSans'" font-size="17.4305">Tópico</tspan></text>
</g>
<g>
	<text transform="matrix(1 0 0 1 800.7183 304.2319)" fill="#FFFFFF" font-family="'OpenSans-CondensedBold'" font-size="24.4027">Tópico Z</text>
	<text transform="matrix(1 0 0 1 807.2056 328.1714)"><tspan x="0" y="0" fill="#FFFFFF" font-family="'OpenSans'" font-size="17.4305">Título do</tspan><tspan x="8.745" y="17.431" fill="#FFFFFF" font-family="'OpenSans'" font-size="17.4305">Tópico</tspan></text>
</g>
<g>
	<text transform="matrix(1 0 0 1 799.3159 515.8057)" fill="#FFFFFF" font-family="'OpenSans-CondensedBold'" font-size="24.4027">Tópico Z</text>
	<text transform="matrix(1 0 0 1 803.4771 539.7441)"><tspan x="0" y="0" fill="#FFFFFF" font-family="'OpenSans'" font-size="17.4305">Título do</tspan><tspan x="8.745" y="17.431" fill="#FFFFFF" font-family="'OpenSans'" font-size="17.4305">Tópico</tspan></text>
</g>
<line fill="none" stroke="#6DB3BA" stroke-miterlimit="10" stroke-dasharray="5" x1="141.923" y1="313.989" x2="205.281" y2="313.989"/>
<line fill="none" stroke="#6DB3BA" stroke-miterlimit="10" stroke-dasharray="5" x1="74.774" y1="531.033" x2="205.281" y2="531.033"/>
<line fill="none" stroke="#6DB3BA" stroke-miterlimit="10" stroke-dasharray="5" x1="74.774" y1="104.729" x2="205.281" y2="104.728"/>
<line fill="none" stroke="#6DB3BA" stroke-miterlimit="10" stroke-dasharray="5" x1="374.357" y1="313.989" x2="418.882" y2="313.989"/>
<line fill="none" stroke="#6DB3BA" stroke-miterlimit="10" stroke-dasharray="5" x1="553.181" y1="313.989" x2="597.708" y2="313.989"/>
<line fill="none" stroke="#6DB3BA" stroke-miterlimit="10" stroke-dasharray="5" x1="730.462" y1="313.989" x2="774.989" y2="313.989"/>
<line fill="none" stroke="#6DB3BA" stroke-miterlimit="10" stroke-dasharray="5" x1="374.357" y1="531.033" x2="418.882" y2="531.033"/>
<line fill="none" stroke="#6DB3BA" stroke-miterlimit="10" stroke-dasharray="5" x1="553.181" y1="531.033" x2="597.708" y2="531.033"/>
<line fill="none" stroke="#6DB3BA" stroke-miterlimit="10" stroke-dasharray="5" x1="730.462" y1="531.033" x2="774.989" y2="531.033"/>
<line fill="none" stroke="#6DB3BA" stroke-miterlimit="10" stroke-dasharray="5" x1="374.357" y1="104.726" x2="418.882" y2="104.726"/>
<line fill="none" stroke="#6DB3BA" stroke-miterlimit="10" stroke-dasharray="5" x1="553.181" y1="104.726" x2="597.708" y2="104.726"/>
<path fill="none" stroke="#6DB3BA" stroke-miterlimit="10" stroke-dasharray="5" d="M290.691,621.671"/>
<line fill="none" stroke="#6DB3BA" stroke-miterlimit="10" stroke-dasharray="5" x1="74.773" y1="102.068" x2="74.774" y2="246.839"/>
<line fill="none" stroke="#6DB3BA" stroke-miterlimit="10" stroke-dasharray="5" x1="74.773" y1="388.012" x2="74.774" y2="532.783"/>
</svg>
